# xmcd
#
# Track frame offsets: 
#        150
#        7823
#        14981
#        22069
#        31219
#        38892
#        45938
#        54030
#        63219
#        71658
#        80780
#        87631
#        96809
#        106021
#        112385
#        121535
#        130573
#        139709
#        147020
#        155669
#        163259
#        169553
#        178452
#        185018
#        193158
#        201054
#        207320
#        215188
#        223419
#        231315
#        239336
#        247400
#        256452
#        265310
#        272231
#        279848
#        285237
#        292562
#        298689
#        306473
#
# Disc length: 4206 seconds
#
# Revision: 0
# Processed by: cddbd v1.5.2PL0 Copyright (c) Steve Scherf et al.
# Submitted via: ExactAudioCopy v1.3
#
DISCID=69106c28
DTITLE=Various Artist - In Search Of Paradise Volume IV
DYEAR=2000
DGENRE=Country
TTITLE0=Llewellyn - Reiki
TTITLE1=Shanghai Chinese Traditional Orchestra - Feng Shui
TTITLE2=Kitaro - Thinking Of You
TTITLE3=Llewellyn - Celtic Legend
TTITLE4=Terry Oldfield - All The Rivers Gold
TTITLE5=John Richardson - Celtic Drums
TTITLE6=Midori (6) - Bali
TTITLE7=Kevin Kendle - Clouds
TTITLE8=LagoonWest* - Yoga
TTITLE9=Shanghai Chinese Traditional Orchestra - Tai Chi
TTITLE10=Stuart Jones - Late Into The Night
TTITLE11=Pia (3) - Magical Eclipse
TTITLE12=Medwyn Goodall - Millennium
TTITLE13=Luis Villegas - Cafe Ole
TTITLE14=Medwyn Goodall - Comet
TTITLE15=Midori (6) - Peaceful Garden
TTITLE16=Llewellyn - Crystals
TTITLE17=Midori (6) - Sleep
TTITLE18=Asha (4) - Music For Love
TTITLE19=Wendy Stark - Child Of Transference
TTITLE20=Terry Oldfield - Icon
TTITLE21=Medwyn Goodall - The Scroll
TTITLE22=Midori (6) - Secrets Of The Panpipes
TTITLE23=Terry Oldfield - Spirit Of The World
TTITLE24=Llewellyn - Aromatherapy
TTITLE25=Llewellyn - Tantric Sexuality
TTITLE26=Stairway (2) - Moonstone
TTITLE27=Various Artist - Music For Relaxation
TTITLE28=Medwyn Goodall - Medicine Woman
TTITLE29=Phil Thornton - Solstice
TTITLE30=Medwyn Goodall - Way Of The Ocean
TTITLE31=James Asher - Raising The Rhythms
TTITLE32=Llewellyn - Pilates
TTITLE33=Midori (6) - Reflexology
TTITLE34=David Sun (2) - Tranquility
TTITLE35=Seamus Byrne - The Healer
TTITLE36=Runestone - Swirling Dreams
TTITLE37=Phil Thornton - Immortal Egypt
TTITLE38=Various Artist - Native American Dream
TTITLE39=Mamelang - Zulu Heartbeat
EXTD=
EXTT0=
EXTT1=
EXTT2=
EXTT3=
EXTT4=
EXTT5=
EXTT6=
EXTT7=
EXTT8=
EXTT9=
EXTT10=
EXTT11=
EXTT12=
EXTT13=
EXTT14=
EXTT15=
EXTT16=
EXTT17=
EXTT18=
EXTT19=
EXTT20=
EXTT21=
EXTT22=
EXTT23=
EXTT24=
EXTT25=
EXTT26=
EXTT27=
EXTT28=
EXTT29=
EXTT30=
EXTT31=
EXTT32=
EXTT33=
EXTT34=
EXTT35=
EXTT36=
EXTT37=
EXTT38=
EXTT39=
PLAYORDER=
